#!OML:ASF E:\Mandelcareful walks\Project 1\Capture day 1\Session 1\Subject1.ASF
:FULLY-SPECIFIED
:DEGREES
1021
root 45.4692 16.874 -12.4788 364.335 5.66979 363.863
lowerback -1.04316 -0.969565 -10.5526
upperback 3.56981 -0.910219 -0.829874
thorax 4.5019 -0.805231 4.99661
lowerneck -13.9196 -2.01869 -4.72015
upperneck 42.4915 -4.59187 7.05913
head 18.7642 -1.64736 3.37424
rclavicle -2.78299e-015 1.27222e-014
rhumerus -33.2006 -11.3227 -77.3168
rradius 29.4033
rwrist -11.0967
rhand -12.0841 -31.6639
rfingers 7.12502
rthumb 13.9759 -61.1741
lclavicle -2.78299e-015 1.27222e-014
lhumerus -21.8848 7.14848 75.0464
lradius 16.9256
lwrist -4.82311
lhand -23.8219 -11.543
lfingers 7.12502
lthumb 2.64933 18.4203
rfemur -26.5737 -14.2077 14.6623
rtibia 62.1417
rfoot -9.76175 1.86704
rtoes 13.4063
lfemur -5.14855 0.694379 -23.0516
ltibia 21.8222
lfoot -21.4114 20.2509
ltoes 5.59885
1022
root 45.5199 16.8659 -12.4421 364.313 4.95892 363.831
lowerback -0.975895 -0.555468 -9.96714
upperback 3.44468 -0.373389 -1.40948
thorax 4.22154 -0.489572 4.09138
lowerneck -13.5178 -2.4795 -3.97457
upperneck 42.3191 -5.79878 7.54355
head 18.6798 -1.95297 3.2293
rclavicle -1.43125e-014 -9.93923e-015
rhumerus -34.1954 -13.7997 -77.2451
rradius 29.6621
rwrist -10.5841
rhand -11.8952 -31.3712
rfingers 7.12502
rthumb 14.1579 -60.8688
lclavicle -1.43125e-014 -9.93923e-015
lhumerus -21.4812 5.60577 74.3582
lradius 16.5815
lwrist -5.06044
lhand -23.4545 -11.7391
lfingers 7.12502
lthumb 3.00418 18.2195
rfemur -27.0526 -15.1179 15.0207
rtibia 61.4347
rfoot -10.2453 2.04915
rtoes 13.599
lfemur -4.99527 1.02521 -23.2164
ltibia 22.0134
lfoot -21.9083 20.4655
ltoes 5.76708
1023
root 45.5805 16.8556 -12.4071 364.327 4.24364 364.077
lowerback -0.873814 -0.461005 -9.58008
upperback 3.36605 -0.261769 -1.8652
thorax 4.0532 -0.403065 3.4065
lowerneck -13.3513 -2.62643 -3.295
upperneck 42.2207 -6.25958 7.50355
head 18.5921 -2.04144 2.98735
rclavicle 1.44119e-014 -3.97569e-015
rhumerus -34.7998 -14.6136 -77.4017
rradius 30.1294
rwrist -10.8246
rhand -11.7524 -31.1151
rfingers 7.12502
rthumb 14.2956 -60.603
lclavicle 1.44119e-014 -3.97569e-015
lhumerus -21.2503 5.2331 73.7276
lradius 16.3307
lwrist -5.21971
lhand -23.333 -11.6818
lfingers 7.12502
lthumb 3.12148 18.2751
rfemur -27.5731 -16.2453 14.9876
rtibia 60.6874
rfoot -10.6044 2.38063
rtoes 13.3828
lfemur -4.85927 1.50862 -23.76
ltibia 22.2197
lfoot -22.4541 20.6111
ltoes 6.41157
1024
root 45.6236 16.8361 -12.3643 364.241 3.56121 364.37
lowerback -0.794126 -0.562784 -9.70618
upperback 3.38178 -0.39829 -1.99146
thorax 4.04394 -0.472688 3.33853
lowerneck -13.362 -2.65397 -3.27418
upperneck 42.1069 -6.32416 7.49706
head 18.5293 -2.07292 2.95881
rclavicle 5.66536e-015 5.32743e-014
rhumerus -35.0287 -14.4107 -77.4934
rradius 30.5964
rwrist -11.3341
rhand -11.3502 -31.2929
rfingers 7.12502
rthumb 14.6831 -60.7529
lclavicle 5.66536e-015 5.32743e-014
lhumerus -21.0972 6.08683 73.2831
lradius 15.9981
lwrist -5.7998
lhand -23.1609 -11.645
lfingers 7.12502
lthumb 3.28769 18.3094
rfemur -27.8671 -17.3541 14.9982
rtibia 59.9161
rfoot -11.2264 2.26159
rtoes 12.1488
lfemur -4.50761 1.37941 -24.2892
ltibia 22.3075
lfoot -22.7877 20.9785
ltoes 6.10707
1025
root 45.6482 16.8323 -12.3191 364.417 2.62015 364.204
lowerback -1.0263 -0.651274 -9.75409
upperback 3.30352 -0.497624 -1.84518
thorax 4.10902 -0.526998 3.51185
lowerneck -13.2721 -2.63158 -3.55837
upperneck 41.8545 -6.28671 7.69805
head 18.3688 -2.08916 3.09931
rclavicle -4.07509e-015 -4.77083e-015
rhumerus -35.1783 -14.1691 -77.5466
rradius 30.9381
rwrist -11.5976
rhand -11.259 -31.3274
rfingers 7.12502
rthumb 14.771 -60.781
lclavicle -4.07509e-015 -4.77083e-015
lhumerus -21.064 7.23288 72.8756
lradius 15.6898
lwrist -6.5796
lhand -22.6921 -11.8566
lfingers 7.12502
lthumb 3.74045 18.0904
rfemur -28.559 -17.8409 15.7528
rtibia 59.0104
rfoot -11.8476 1.6919
rtoes 11.6905
lfemur -4.618 1.71124 -24.239
ltibia 22.3573
lfoot -21.885 21.8776
ltoes 1.21236
1026
root 45.6668 16.8246 -12.2687 364.451 1.73365 364.348
lowerback -1.14876 -0.784098 -10.0698
upperback 3.26004 -0.652988 -1.83956
thorax 4.16185 -0.615396 3.6838
lowerneck -13.1782 -2.5386 -3.78663
upperneck 41.6826 -6.17528 7.92331
head 18.2487 -2.06348 3.25888
rclavicle -1.2921e-015 1.82882e-014
rhumerus -35.3915 -14.1643 -77.6964
rradius 31.2638
rwrist -11.6885
rhand -11.2641 -31.0822
rfingers 7.12502
rthumb 14.7661 -60.5362
lclavicle -1.2921e-015 1.82882e-014
lhumerus -21.2068 8.06904 72.3594
lradius 15.5358
lwrist -7.12038
lhand -22.9476 -11.7416
lfingers 7.12502
lthumb 3.49369 18.2095
rfemur -29.0247 -18.3436 16.1299
rtibia 58.0394
rfoot -12.4029 0.979609
rtoes 11.4978
lfemur -4.37279 2.40061 -24.4758
ltibia 22.2635
lfoot -22.5138 21.7817
ltoes 3.08922
1027
root 45.6901 16.8249 -12.2143 364.343 0.646806 364.335
lowerback -1.20901 -0.756041 -10.0406
upperback 3.26678 -0.607129 -1.90365
thorax 4.19529 -0.592587 3.60212
lowerneck -13.2029 -2.51815 -3.7873
upperneck 41.6075 -6.21175 8.04004
head 18.2213 -2.07066 3.30148
rclavicle 7.95139e-016 2.46493e-014
rhumerus -35.635 -14.3301 -77.8775
rradius 31.6507
rwrist -11.8871
rhand -11.3044 -31.3165
rfingers 7.12502
rthumb 14.7272 -60.7733
lclavicle 7.95139e-016 2.46493e-014
lhumerus -21.1746 8.96883 71.7718
lradius 15.2687
lwrist -7.89752
lhand -23.5005 -11.3874
lfingers 7.12502
lthumb 2.95978 18.5718
rfemur -29.2058 -18.5439 16.5602
rtibia 56.9564
rfoot -13.01 0.148384
rtoes 11.5939
lfemur -4.03022 2.76648 -24.7306
ltibia 22.1103
lfoot -23.0432 22.6337
ltoes 4.37896
1028
root 45.7074 16.8366 -12.1682 364.464 -0.283319 364.367
lowerback -1.34084 -0.839517 -10.2289
upperback 3.17108 -0.705419 -1.83047
thorax 4.18865 -0.645609 3.77735
lowerneck -13.2216 -2.51899 -3.95192
upperneck 41.564 -6.16203 7.99641
head 18.1976 -2.0902 3.31508
rclavicle -1.39149e-014 -9.54166e-015
rhumerus -35.7548 -13.6387 -78.1275
rradius 31.9368
rwrist -12.5462
rhand -11.4818 -31.7931
rfingers 7.12502
rthumb 14.5563 -61.2624
lclavicle -1.39149e-014 -9.54166e-015
lhumerus -21.1552 10.9015 71.1127
lradius 14.8102
lwrist -9.55174
lhand -23.3351 -11.4705
lfingers 7.12502
lthumb 3.11946 18.4864
rfemur -29.6114 -18.9332 17.0467
rtibia 55.8071
rfoot -13.67 -0.434932
rtoes 11.992
lfemur -3.78145 3.09198 -24.8696
ltibia 21.8951
lfoot -23.7313 22.5821
ltoes 6.99221
1029
root 45.7304 16.8365 -12.1211 364.499 -1.20666 364.438
lowerback -1.38385 -1.04626 -10.3745
upperback 3.05892 -0.984089 -1.68807
thorax 4.14147 -0.785384 3.9927
lowerneck -13.1885 -2.37109 -4.27728
upperneck 41.5283 -5.77246 7.82149
head 18.1232 -2.01743 3.35909
rclavicle -1.37161e-014 -1.27222e-014
rhumerus -35.8852 -12.665 -78.2612
rradius 32.2115
rwrist -13.1657
rhand -11.1985 -32.6004
rfingers 7.12502
rthumb 14.8293 -62.0498
lclavicle -1.37161e-014 -1.27222e-014
lhumerus -21.4168 13.5161 70.331
lradius 14.3338
lwrist -11.656
lhand -23.147 -11.7537
lfingers 7.12502
lthumb 3.30111 18.2005
rfemur -30.0152 -19.4802 17.49
rtibia 54.482
rfoot -14.1614 -0.964104
rtoes 11.4798
lfemur -3.44981 3.35887 -25.0927
ltibia 21.6147
lfoot -23.724 22.9242
ltoes 6.77295
1030
root 45.7509 16.8258 -12.0703 364.473 -2.17683 364.46
lowerback -1.51808 -1.24387 -10.5843
upperback 3.04941 -1.22961 -1.51889
thorax 4.25596 -0.922052 4.26971
lowerneck -13.2163 -2.22143 -4.40186
upperneck 41.4205 -5.41862 7.5941
head 18.0166 -1.93189 3.32965
rclavicle 8.64713e-015 2.54444e-014
rhumerus -36.1191 -12.4774 -78.1572
rradius 32.7633
rwrist -13.3021
rhand -10.7964 -31.5802
rfingers 7.12502
rthumb 15.2166 -61.0006
lclavicle 8.64713e-015 2.54444e-014
lhumerus -21.6267 15.4014 69.7324
lradius 14.0051
lwrist -13.163
lhand -22.4859 -11.6167
lfingers 7.12502
lthumb 3.93955 18.3266
rfemur -30.2804 -19.8992 17.9969
rtibia 53.0732
rfoot -14.7229 -1.58447
rtoes 10.9468
lfemur -2.93807 3.41736 -25.2724
ltibia 21.1787
lfoot -23.9145 23.3957
ltoes 6.56599
1031
root 45.7672 16.8204 -12.0181 364.47 -3.15377 364.528
lowerback -1.66589 -1.39296 -10.8344
upperback 3.02611 -1.4047 -1.43398
thorax 4.3548 -1.02245 4.48389
lowerneck -13.1923 -2.09966 -4.45068
upperneck 41.2879 -5.21835 7.56621
head 17.9079 -1.87083 3.35192
rclavicle -1.55052e-014 1.11319e-014
rhumerus -36.1698 -12.1991 -78.2375
rradius 32.9708
rwrist -13.4764
rhand -10.6807 -31.458
rfingers 7.12502
rthumb 15.3281 -60.87
lclavicle -1.55052e-014 1.11319e-014
lhumerus -21.7907 17.2403 69.0026
lradius 13.6442
lwrist -14.9093
lhand -21.5419 -11.8186
lfingers 7.12502
lthumb 4.85108 18.1058
rfemur -30.441 -20.0038 18.4379
rtibia 51.5983
rfoot -15.4422 -2.45207
rtoes 11.2621
lfemur -2.56489 3.4861 -25.5187
ltibia 20.8813
lfoot -24.9292 23.899
ltoes 7.54796
1032
root 45.7847 16.8223 -11.9678 364.423 -4.09337 364.653
lowerback -1.70194 -1.46738 -11.0143
upperback 2.98801 -1.49715 -1.39153
thorax 4.35825 -1.07384 4.62218
lowerneck -13.1476 -2.05581 -4.57554
upperneck 41.1563 -5.14539 7.61573
head 17.8158 -1.86215 3.40205
rclavicle -1.98785e-014 1.19271e-014
rhumerus -36.1958 -12.1912 -78.249
rradius 32.9637
rwrist -13.2062
rhand -10.6856 -31.458
rfingers 7.12502
rthumb 15.3233 -60.8702
lclavicle -1.98785e-014 1.19271e-014
lhumerus -21.9352 19.5201 68.1937
lradius 13.2113
lwrist -17.2394
lhand -22.6715 -12.06
lfingers 7.12502
lthumb 3.76037 17.8865
rfemur -30.4229 -20.3289 18.8336
rtibia 49.7631
rfoot -15.9085 -3.52613
rtoes 10.6242
lfemur -1.89906 3.39839 -25.847
ltibia 20.0408
lfoot -25.1229 24.8062
ltoes 6.92641
